<svg xmlns="http://www.w3.org/2000/svg" viewBox="0 0 680 380" font-family="'Inter', system-ui, -apple-system, sans-serif">
  <defs>
    <linearGradient id="cardGrad" x1="0" y1="0" x2="0" y2="1">
      <stop offset="0%" stop-color="#18181b"/>
      <stop offset="100%" stop-color="#09090b"/>
    </linearGradient>
  </defs>
  <rect width="680" height="380" fill="url(#cardGrad)" rx="12"/>
  <rect x="0.5" y="0.5" width="679" height="379" fill="none" stroke="#27272a" rx="12" stroke-width="1"/>
  <text x="340" y="36" text-anchor="middle" fill="#fafafa" font-size="15" font-weight="700" letter-spacing="0.02em">Feature Comparison</text>
  <text x="340" y="54" text-anchor="middle" fill="#71717a" font-size="11">Lower is better</text>
  <text x="185" y="72" text-anchor="middle" fill="#22c55e" font-size="9" font-weight="600">calendar</text><text x="275" y="72" text-anchor="middle" fill="#ef4444" font-size="9" font-weight="600">react-day-picker</text><text x="365" y="72" text-anchor="middle" fill="#3b82f6" font-size="9" font-weight="600">react-aria</text><text x="455" y="72" text-anchor="middle" fill="#f59e0b" font-size="9" font-weight="600">react-datepicker</text><text x="545" y="72" text-anchor="middle" fill="#a855f7" font-size="9" font-weight="600">react-calendar</text>
  <text x="128" y="100" text-anchor="end" fill="#d4d4d8" font-size="11">Tree-shakeable</text><line x1="120" y1="110" x2="590" y2="110" stroke="#27272a" stroke-width="0.5"/><circle cx="185" cy="96" r="7" fill="#22c55e" opacity="0.2"/>
        <text x="185" y="100" text-anchor="middle" fill="#22c55e" font-size="12">✓</text><text x="275" y="100" text-anchor="middle" fill="#52525b" font-size="12">✗</text><text x="365" y="100" text-anchor="middle" fill="#52525b" font-size="12">✗</text><text x="455" y="100" text-anchor="middle" fill="#52525b" font-size="12">✗</text><text x="545" y="100" text-anchor="middle" fill="#52525b" font-size="12">✗</text><text x="128" y="136" text-anchor="end" fill="#d4d4d8" font-size="11">Zero CSS</text><line x1="120" y1="146" x2="590" y2="146" stroke="#27272a" stroke-width="0.5"/><circle cx="185" cy="132" r="7" fill="#22c55e" opacity="0.2"/>
        <text x="185" y="136" text-anchor="middle" fill="#22c55e" font-size="12">✓</text><text x="275" y="136" text-anchor="middle" fill="#52525b" font-size="12">✗</text><circle cx="365" cy="132" r="7" fill="#22c55e" opacity="0.2"/>
        <text x="365" y="136" text-anchor="middle" fill="#22c55e" font-size="12">✓</text><text x="455" y="136" text-anchor="middle" fill="#52525b" font-size="12">✗</text><text x="545" y="136" text-anchor="middle" fill="#52525b" font-size="12">✗</text><text x="128" y="172" text-anchor="end" fill="#d4d4d8" font-size="11">Date Adapter</text><line x1="120" y1="182" x2="590" y2="182" stroke="#27272a" stroke-width="0.5"/><circle cx="185" cy="168" r="7" fill="#22c55e" opacity="0.2"/>
        <text x="185" y="172" text-anchor="middle" fill="#22c55e" font-size="12">✓</text><text x="275" y="172" text-anchor="middle" fill="#52525b" font-size="12">✗</text><text x="365" y="172" text-anchor="middle" fill="#52525b" font-size="12">✗</text><text x="455" y="172" text-anchor="middle" fill="#52525b" font-size="12">✗</text><text x="545" y="172" text-anchor="middle" fill="#52525b" font-size="12">✗</text><text x="128" y="208" text-anchor="end" fill="#d4d4d8" font-size="11">SSR Safe</text><line x1="120" y1="218" x2="590" y2="218" stroke="#27272a" stroke-width="0.5"/><circle cx="185" cy="204" r="7" fill="#22c55e" opacity="0.2"/>
        <text x="185" y="208" text-anchor="middle" fill="#22c55e" font-size="12">✓</text><circle cx="275" cy="204" r="7" fill="#22c55e" opacity="0.2"/>
        <text x="275" y="208" text-anchor="middle" fill="#22c55e" font-size="12">✓</text><circle cx="365" cy="204" r="7" fill="#22c55e" opacity="0.2"/>
        <text x="365" y="208" text-anchor="middle" fill="#22c55e" font-size="12">✓</text><text x="455" y="208" text-anchor="middle" fill="#52525b" font-size="12">✗</text><circle cx="545" cy="204" r="7" fill="#22c55e" opacity="0.2"/>
        <text x="545" y="208" text-anchor="middle" fill="#22c55e" font-size="12">✓</text><text x="128" y="244" text-anchor="end" fill="#d4d4d8" font-size="11">ARIA Compliant</text><line x1="120" y1="254" x2="590" y2="254" stroke="#27272a" stroke-width="0.5"/><circle cx="185" cy="240" r="7" fill="#22c55e" opacity="0.2"/>
        <text x="185" y="244" text-anchor="middle" fill="#22c55e" font-size="12">✓</text><circle cx="275" cy="240" r="7" fill="#22c55e" opacity="0.2"/>
        <text x="275" y="244" text-anchor="middle" fill="#22c55e" font-size="12">✓</text><circle cx="365" cy="240" r="7" fill="#22c55e" opacity="0.2"/>
        <text x="365" y="244" text-anchor="middle" fill="#22c55e" font-size="12">✓</text><text x="455" y="244" text-anchor="middle" fill="#52525b" font-size="12">✗</text><text x="545" y="244" text-anchor="middle" fill="#52525b" font-size="12">✗</text><text x="128" y="280" text-anchor="end" fill="#d4d4d8" font-size="11">Keyboard Nav</text><circle cx="185" cy="276" r="7" fill="#22c55e" opacity="0.2"/>
        <text x="185" y="280" text-anchor="middle" fill="#22c55e" font-size="12">✓</text><circle cx="275" cy="276" r="7" fill="#22c55e" opacity="0.2"/>
        <text x="275" y="280" text-anchor="middle" fill="#22c55e" font-size="12">✓</text><circle cx="365" cy="276" r="7" fill="#22c55e" opacity="0.2"/>
        <text x="365" y="280" text-anchor="middle" fill="#22c55e" font-size="12">✓</text><text x="455" y="280" text-anchor="middle" fill="#52525b" font-size="12">✗</text><text x="545" y="280" text-anchor="middle" fill="#52525b" font-size="12">✗</text>
  <rect x="136" y="80" width="98" height="216" fill="#22c55e" opacity="0.04" rx="6"/>
</svg>